# xmcd CD database file
#
# Track frame offsets:
#	150
#	20917
#	37040
#	54807
#	72617
#	93180
#	116595
#	135977
#	153210
#	171440
#
# Disc length: 2634 seconds
#
# Revision: 3
# Processed by: cddbd v1.5PL3 Copyright (c) Steve Scherf et al.
# Submitted via: CDex 1.50
#
DISCID=820a480a
DTITLE=TUBE - SUMMER CITY
DYEAR=1989
DGENRE=JPop
TTITLE0=Surfer Girl
TTITLE1=Hey! Baby
TTITLE2=Summer City
TTITLE3=ウワサのCrazy Boys
TTITLE4=心までSunshine
TTITLE5=Secret Love
TTITLE6=Paradise
TTITLE7=週末Only You
TTITLE8=Let's Jump
TTITLE9=Melody(君のために・・・)
EXTD=YEAR: 1989
EXTT0=
EXTT1=
EXTT2=
EXTT3=
EXTT4=
EXTT5=
EXTT6=
EXTT7=
EXTT8=
EXTT9=
PLAYORDER=
